<svg xmlns="http://www.w3.org/2000/svg" viewBox="0 0 316.89 389.72"><defs><style>.cls-1{isolation:isolate;}.cls-2{fill:#ebebec;mix-blend-mode:multiply;}.cls-3{fill:#fddc47;}.cls-4{fill:#f7b500;}.cls-5{fill:#461719;}.cls-12,.cls-19,.cls-6{fill:#1d1d1b;}.cls-7{fill:#9bbf48;}.cls-8{fill:#33943f;}.cls-9{fill:#facd47;}.cls-10{fill:#f5ad2e;}.cls-11{fill:#572915;}.cls-12,.cls-18,.cls-19{font-size:50px;}.cls-12{font-family:Ghoustshadow-Regular, Ghoust shadow;}.cls-13{letter-spacing:-0.03em;}.cls-14{letter-spacing:0.05em;}.cls-15{letter-spacing:0.05em;}.cls-16{letter-spacing:-0.02em;}.cls-17{letter-spacing:0.04em;}.cls-18{fill:#fff;font-family:GhoustSolid, Ghoust Solid;}.cls-19{font-family:GhoustOutline-Regular, Ghoust Outline;}</style></defs><g class="cls-1"><g id="Capa_1" data-name="Capa 1"><ellipse class="cls-2" cx="157.45" cy="273.69" rx="121.42" ry="32.77"/><path class="cls-3" d="M64.41,158.45s-8.2,73-6.68,85.44,31.3,16.39,37.36,16.7,14-37.75,14-37.75l.34-40.14-1.35-34.15-19.3,1.22Z"/><path class="cls-4" d="M88.8,149.77l-21,7.46-1.69,5.32s11.62,7.25,8.58,35.19S61.66,245.4,78.38,253c7.47,3.39,16.66-.81,24.55-6.49,3.46-10.73,6.18-23.67,6.18-23.67l.34-40.14-1.35-34.15Z"/><path class="cls-5" d="M79.36,140.9c2.84-26.72,8.5-30.67,8.5-30.67,4-1.22,9.47,2.48,14.29,6.92L97.3,91.92s-23.07,7.69-29.14,20.64c-2.5,5.32-4.92,25.61-6.92,48.45L77,163C77.84,154.94,78.68,147.3,79.36,140.9Z"/><path class="cls-6" d="M87.86,110.23s-5.66,4-8.5,30.67c-.68,6.4-1.52,14-2.38,22.13l14.15,1.81,22.08-2.38-.25-33.3a101.69,101.69,0,0,0-10.81-12C97.33,112.71,91.86,109,87.86,110.23Z"/><path class="cls-3" d="M253.8,158.45s8.2,73,6.68,85.44-31.3,16.39-37.36,16.7-14-37.75-14-37.75l-.34-40.14,1.34-34.15,19.3,1.22Z"/><path class="cls-4" d="M229.41,149.77l21,7.46,1.68,5.32s-11.62,7.25-8.58,35.19,13.07,47.66-3.64,55.26c-7.48,3.39-16.67-.81-24.55-6.49-3.47-10.73-6.18-23.67-6.18-23.67l-.34-40.14,1.34-34.15Z"/><path class="cls-5" d="M238.85,140.9c-2.83-26.72-8.5-30.67-8.5-30.67-4-1.22-9.47,2.48-14.28,6.92l4.84-25.23s23.08,7.69,29.15,20.64c2.49,5.32,4.92,25.61,6.91,48.45l-15.73,2C240.37,154.94,239.53,147.3,238.85,140.9Z"/><path class="cls-6" d="M230.35,110.23s5.67,4,8.5,30.67c.68,6.4,1.52,14,2.39,22.13l-14.15,1.81L205,162.46l.24-33.3a102.3,102.3,0,0,1,10.82-12C220.88,112.71,226.35,109,230.35,110.23Z"/><rect class="cls-7" x="88.8" y="94.53" width="139.26" height="144.8"/><path class="cls-8" d="M228.06,179.61c-57,21.1-111.79,7.61-139.26-2.27v62H228.06Z"/><rect class="cls-9" x="104.35" y="196.83" width="108.17" height="50.2" rx="12.47"/><path class="cls-6" d="M104.35,209.3v3.11H212.52V209.3c0-.05,0-.08,0-.13H104.36C104.36,209.22,104.35,209.25,104.35,209.3Z"/><path class="cls-10" d="M212.52,234.55v-17c-50.42,12.06-92.55,3.77-108.17-.31v17.31A12.46,12.46,0,0,0,116.81,247h83.24A12.47,12.47,0,0,0,212.52,234.55Z"/><path class="cls-5" d="M184.35,38.37H132.51a14.23,14.23,0,0,0-14.23,14.24v31a14.23,14.23,0,0,0,14.23,14.23h51.84a14.24,14.24,0,0,0,14.24-14.23v-31A14.24,14.24,0,0,0,184.35,38.37ZM184,81.19a9.06,9.06,0,0,1-9.06,9.06h-33a9.06,9.06,0,0,1-9.06-9.06V61.48a9.06,9.06,0,0,1,9.06-9.06h33A9.06,9.06,0,0,1,184,61.48Z"/><path class="cls-6" d="M177.44,47.56h-38A10.44,10.44,0,0,0,129,58V80.71a10.44,10.44,0,0,0,10.44,10.44h38a10.43,10.43,0,0,0,10.44-10.44V58A10.43,10.43,0,0,0,177.44,47.56ZM184,81.19a9.06,9.06,0,0,1-9.06,9.06h-33a9.06,9.06,0,0,1-9.06-9.06V61.48a9.06,9.06,0,0,1,9.06-9.06h33A9.06,9.06,0,0,1,184,61.48Z"/><rect class="cls-5" x="71.93" y="235.28" width="173" height="53.44" rx="19.77"/><path class="cls-6" d="M244.93,269V255.67c-76.39,27-147.17,8.93-173,.4V269A19.77,19.77,0,0,0,91.7,288.72H225.16A19.77,19.77,0,0,0,244.93,269Z"/><rect class="cls-7" x="109.45" y="230.95" width="17.81" height="62.1" rx="5.71"/><path class="cls-8" d="M109.45,268.85v18.49a5.71,5.71,0,0,0,5.71,5.71h6.39a5.71,5.71,0,0,0,5.71-5.71V268.8A38.27,38.27,0,0,1,109.45,268.85Z"/><path class="cls-9" d="M122.41,255.54H114.3a7.28,7.28,0,0,0-7.28,7.28v8.1a7.28,7.28,0,0,0,7.28,7.28h8.11a7.28,7.28,0,0,0,7.28-7.28v-8.1A7.28,7.28,0,0,0,122.41,255.54Zm4,14.21a5.2,5.2,0,0,1-5.19,5.2h-5.79a5.2,5.2,0,0,1-5.19-5.2V264a5.19,5.19,0,0,1,5.19-5.19h5.79a5.19,5.19,0,0,1,5.19,5.19Z"/><path class="cls-10" d="M121.66,257.63h-6.61a5.94,5.94,0,0,0-5.94,5.94v6.6a5.94,5.94,0,0,0,5.94,5.94h6.61a5.94,5.94,0,0,0,5.94-5.94v-6.6A5.94,5.94,0,0,0,121.66,257.63Zm4.78,12.12a5.2,5.2,0,0,1-5.19,5.2h-5.79a5.2,5.2,0,0,1-5.19-5.2V264a5.19,5.19,0,0,1,5.19-5.19h5.79a5.19,5.19,0,0,1,5.19,5.19Z"/><rect class="cls-11" x="120.78" y="119.69" width="17.81" height="62.1" rx="5.71"/><path class="cls-6" d="M120.78,157.59v18.49a5.71,5.71,0,0,0,5.71,5.71h6.4a5.71,5.71,0,0,0,5.71-5.71V157.54A38.45,38.45,0,0,1,120.78,157.59Z"/><path class="cls-9" d="M133.74,144.28h-8.11a7.28,7.28,0,0,0-7.28,7.28v8.09a7.28,7.28,0,0,0,7.28,7.28h8.11a7.28,7.28,0,0,0,7.28-7.28v-8.09A7.28,7.28,0,0,0,133.74,144.28Zm4,14.21a5.19,5.19,0,0,1-5.19,5.19H126.8a5.19,5.19,0,0,1-5.19-5.19v-5.77a5.19,5.19,0,0,1,5.19-5.19h5.78a5.19,5.19,0,0,1,5.19,5.19Z"/><path class="cls-10" d="M133,146.37h-6.62a5.93,5.93,0,0,0-5.94,5.93v6.61a5.94,5.94,0,0,0,5.94,5.94H133a5.94,5.94,0,0,0,5.94-5.94V152.3A5.93,5.93,0,0,0,133,146.37Zm4.77,12.12a5.19,5.19,0,0,1-5.19,5.19H126.8a5.19,5.19,0,0,1-5.19-5.19v-5.77a5.19,5.19,0,0,1,5.19-5.19h5.78a5.19,5.19,0,0,1,5.19,5.19Z"/><rect class="cls-11" x="178.98" y="119.69" width="17.81" height="62.1" rx="5.71"/><path class="cls-6" d="M179,157.59v18.49a5.71,5.71,0,0,0,5.7,5.71h6.4a5.71,5.71,0,0,0,5.71-5.71V157.54A38.4,38.4,0,0,1,179,157.59Z"/><path class="cls-9" d="M191.94,144.28h-8.11a7.28,7.28,0,0,0-7.28,7.28v8.09a7.28,7.28,0,0,0,7.28,7.28h8.11a7.28,7.28,0,0,0,7.28-7.28v-8.09A7.28,7.28,0,0,0,191.94,144.28Zm4,14.21a5.19,5.19,0,0,1-5.19,5.19H185a5.19,5.19,0,0,1-5.19-5.19v-5.77a5.19,5.19,0,0,1,5.19-5.19h5.78a5.19,5.19,0,0,1,5.19,5.19Z"/><path class="cls-10" d="M191.19,146.37h-6.62a5.92,5.92,0,0,0-5.93,5.93v6.61a5.93,5.93,0,0,0,5.93,5.94h6.62a5.94,5.94,0,0,0,5.94-5.94V152.3A5.93,5.93,0,0,0,191.19,146.37ZM196,158.49a5.19,5.19,0,0,1-5.19,5.19H185a5.19,5.19,0,0,1-5.19-5.19v-5.77a5.19,5.19,0,0,1,5.19-5.19h5.78a5.19,5.19,0,0,1,5.19,5.19Z"/><rect class="cls-7" x="188.18" y="230.95" width="17.81" height="62.1" rx="5.71"/><path class="cls-8" d="M188.18,268.85v18.49a5.71,5.71,0,0,0,5.71,5.71h6.39a5.71,5.71,0,0,0,5.71-5.71V268.8A38.27,38.27,0,0,1,188.18,268.85Z"/><path class="cls-9" d="M201.14,255.54H193a7.28,7.28,0,0,0-7.28,7.28v8.1A7.28,7.28,0,0,0,193,278.2h8.11a7.28,7.28,0,0,0,7.28-7.28v-8.1A7.28,7.28,0,0,0,201.14,255.54Zm4,14.21A5.2,5.2,0,0,1,200,275h-5.79a5.2,5.2,0,0,1-5.19-5.2V264a5.19,5.19,0,0,1,5.19-5.19H200a5.19,5.19,0,0,1,5.19,5.19Z"/><path class="cls-10" d="M200.39,257.63h-6.61a5.94,5.94,0,0,0-5.94,5.94v6.6a5.94,5.94,0,0,0,5.94,5.94h6.61a5.94,5.94,0,0,0,5.94-5.94v-6.6A5.94,5.94,0,0,0,200.39,257.63Zm4.78,12.12A5.2,5.2,0,0,1,200,275h-5.79a5.2,5.2,0,0,1-5.19-5.2V264a5.19,5.19,0,0,1,5.19-5.19H200a5.19,5.19,0,0,1,5.19,5.19Z"/><rect class="cls-7" x="85.16" y="64.85" width="146.55" height="61.94" rx="21.66"/><path class="cls-8" d="M210.05,110.6H106.82A21.66,21.66,0,0,1,85.16,88.94v16.19a21.66,21.66,0,0,0,21.66,21.66H210.05a21.65,21.65,0,0,0,21.65-21.66V88.94A21.65,21.65,0,0,1,210.05,110.6Z"/><text class="cls-12" transform="translate(89.02 364.85)"><tspan class="cls-13">T</tspan><tspan class="cls-14" x="17.38" y="0">O</tspan><tspan class="cls-15" x="38.75" y="0">U</tspan><tspan class="cls-16" x="59.79" y="0">C</tspan><tspan class="cls-17" x="81.96" y="0">H</tspan><tspan x="108.5" y="0">A</tspan></text><text class="cls-18" transform="translate(92.28 366.44)"><tspan class="cls-13">T</tspan><tspan class="cls-14" x="17.38" y="0">O</tspan><tspan class="cls-15" x="38.75" y="0">U</tspan><tspan class="cls-16" x="59.79" y="0">C</tspan><tspan class="cls-17" x="81.96" y="0">H</tspan><tspan x="108.5" y="0">A</tspan></text><text class="cls-19" transform="translate(91.28 365.85)"><tspan class="cls-13">T</tspan><tspan class="cls-14" x="17.38" y="0">O</tspan><tspan class="cls-15" x="38.75" y="0">U</tspan><tspan class="cls-16" x="59.79" y="0">C</tspan><tspan class="cls-17" x="81.96" y="0">H</tspan><tspan x="108.5" y="0">A</tspan></text></g></g></svg>