<svg xmlns="http://www.w3.org/2000/svg" viewBox="0 0 316.89 389.72"><defs><style>.cls-1{isolation:isolate;}.cls-2{fill:#ebebec;mix-blend-mode:multiply;}.cls-3{fill:#fddc47;}.cls-4{fill:#f7b500;}.cls-5{fill:#461719;}.cls-6{fill:#1d1d1b;}.cls-7{fill:#9bbf48;}.cls-8{fill:#33943f;}.cls-9{fill:#facd47;}.cls-10{fill:#f5ad2e;}.cls-11{fill:#572915;}</style></defs><g class="cls-1"><g id="Capa_1" data-name="Capa 1"><ellipse class="cls-2" cx="158.45" cy="299.69" rx="121.42" ry="32.77"/><path class="cls-3" d="M65.41,184.45s-8.2,73-6.68,85.44,31.3,16.39,37.36,16.7,14-37.75,14-37.75l.34-40.14-1.35-34.15-19.3,1.22Z"/><path class="cls-4" d="M89.8,175.77l-21,7.46-1.69,5.32s11.62,7.25,8.58,35.19S62.66,271.4,79.38,279c7.47,3.39,16.66-.81,24.55-6.49,3.46-10.73,6.18-23.67,6.18-23.67l.34-40.14-1.35-34.15Z"/><path class="cls-5" d="M80.36,166.9c2.84-26.72,8.5-30.67,8.5-30.67,4-1.22,9.47,2.48,14.29,6.92L98.3,117.92s-23.07,7.69-29.14,20.64c-2.5,5.32-4.92,25.61-6.92,48.45L78,189C78.84,180.94,79.68,173.3,80.36,166.9Z"/><path class="cls-6" d="M88.86,136.23s-5.66,4-8.5,30.67c-.68,6.4-1.52,14-2.38,22.13l14.15,1.81,22.08-2.38-.25-33.3a101.69,101.69,0,0,0-10.81-12C98.33,138.71,92.86,135,88.86,136.23Z"/><path class="cls-3" d="M254.8,184.45s8.2,73,6.68,85.44-31.3,16.39-37.36,16.7-14-37.75-14-37.75l-.34-40.14,1.34-34.15,19.3,1.22Z"/><path class="cls-4" d="M230.41,175.77l21,7.46,1.68,5.32s-11.62,7.25-8.58,35.19,13.07,47.66-3.64,55.26c-7.48,3.39-16.67-.81-24.55-6.49-3.47-10.73-6.18-23.67-6.18-23.67l-.34-40.14,1.34-34.15Z"/><path class="cls-5" d="M239.85,166.9c-2.83-26.72-8.5-30.67-8.5-30.67-4-1.22-9.47,2.48-14.28,6.92l4.84-25.23s23.08,7.69,29.15,20.64c2.49,5.32,4.92,25.61,6.91,48.45l-15.73,2C241.37,180.94,240.53,173.3,239.85,166.9Z"/><path class="cls-6" d="M231.35,136.23s5.67,4,8.5,30.67c.68,6.4,1.52,14,2.39,22.13l-14.15,1.81L206,188.46l.24-33.3a102.3,102.3,0,0,1,10.82-12C221.88,138.71,227.35,135,231.35,136.23Z"/><rect class="cls-7" x="89.8" y="120.53" width="139.26" height="144.8"/><path class="cls-8" d="M229.06,205.61c-57,21.1-111.79,7.61-139.26-2.27v62H229.06Z"/><rect class="cls-9" x="105.35" y="222.83" width="108.17" height="50.2" rx="12.47"/><path class="cls-6" d="M105.35,235.3v3.11H213.52V235.3c0-.05,0-.08,0-.13H105.36C105.36,235.22,105.35,235.25,105.35,235.3Z"/><path class="cls-10" d="M213.52,260.55v-17c-50.42,12.06-92.55,3.77-108.17-.31v17.31A12.46,12.46,0,0,0,117.81,273h83.24A12.47,12.47,0,0,0,213.52,260.55Z"/><path class="cls-5" d="M185.35,64.37H133.51a14.23,14.23,0,0,0-14.23,14.24v31a14.23,14.23,0,0,0,14.23,14.23h51.84a14.24,14.24,0,0,0,14.24-14.23v-31A14.24,14.24,0,0,0,185.35,64.37ZM185,107.19a9.06,9.06,0,0,1-9.06,9.06h-33a9.06,9.06,0,0,1-9.06-9.06V87.48a9.06,9.06,0,0,1,9.06-9.06h33A9.06,9.06,0,0,1,185,87.48Z"/><path class="cls-6" d="M178.44,73.56h-38A10.44,10.44,0,0,0,130,84v22.71a10.44,10.44,0,0,0,10.44,10.44h38a10.43,10.43,0,0,0,10.44-10.44V84A10.43,10.43,0,0,0,178.44,73.56ZM185,107.19a9.06,9.06,0,0,1-9.06,9.06h-33a9.06,9.06,0,0,1-9.06-9.06V87.48a9.06,9.06,0,0,1,9.06-9.06h33A9.06,9.06,0,0,1,185,87.48Z"/><rect class="cls-5" x="72.93" y="261.28" width="173" height="53.44" rx="19.77"/><path class="cls-6" d="M245.93,295V281.67c-76.39,27-147.17,8.93-173,.4V295A19.77,19.77,0,0,0,92.7,314.72H226.16A19.77,19.77,0,0,0,245.93,295Z"/><rect class="cls-7" x="110.45" y="256.95" width="17.81" height="62.1" rx="5.71"/><path class="cls-8" d="M110.45,294.85v18.49a5.71,5.71,0,0,0,5.71,5.71h6.39a5.71,5.71,0,0,0,5.71-5.71V294.8A38.27,38.27,0,0,1,110.45,294.85Z"/><path class="cls-9" d="M123.41,281.54H115.3a7.28,7.28,0,0,0-7.28,7.28v8.1a7.28,7.28,0,0,0,7.28,7.28h8.11a7.28,7.28,0,0,0,7.28-7.28v-8.1A7.28,7.28,0,0,0,123.41,281.54Zm4,14.21a5.2,5.2,0,0,1-5.19,5.2h-5.79a5.2,5.2,0,0,1-5.19-5.2V290a5.19,5.19,0,0,1,5.19-5.19h5.79a5.19,5.19,0,0,1,5.19,5.19Z"/><path class="cls-10" d="M122.66,283.63h-6.61a5.94,5.94,0,0,0-5.94,5.94v6.6a5.94,5.94,0,0,0,5.94,5.94h6.61a5.94,5.94,0,0,0,5.94-5.94v-6.6A5.94,5.94,0,0,0,122.66,283.63Zm4.78,12.12a5.2,5.2,0,0,1-5.19,5.2h-5.79a5.2,5.2,0,0,1-5.19-5.2V290a5.19,5.19,0,0,1,5.19-5.19h5.79a5.19,5.19,0,0,1,5.19,5.19Z"/><rect class="cls-11" x="121.78" y="145.69" width="17.81" height="62.1" rx="5.71"/><path class="cls-6" d="M121.78,183.59v18.49a5.71,5.71,0,0,0,5.71,5.71h6.4a5.71,5.71,0,0,0,5.71-5.71V183.54A38.45,38.45,0,0,1,121.78,183.59Z"/><path class="cls-9" d="M134.74,170.28h-8.11a7.28,7.28,0,0,0-7.28,7.28v8.09a7.28,7.28,0,0,0,7.28,7.28h8.11a7.28,7.28,0,0,0,7.28-7.28v-8.09A7.28,7.28,0,0,0,134.74,170.28Zm4,14.21a5.19,5.19,0,0,1-5.19,5.19H127.8a5.19,5.19,0,0,1-5.19-5.19v-5.77a5.19,5.19,0,0,1,5.19-5.19h5.78a5.19,5.19,0,0,1,5.19,5.19Z"/><path class="cls-10" d="M134,172.37h-6.62a5.93,5.93,0,0,0-5.94,5.93v6.61a5.94,5.94,0,0,0,5.94,5.94H134a5.94,5.94,0,0,0,5.94-5.94V178.3A5.93,5.93,0,0,0,134,172.37Zm4.77,12.12a5.19,5.19,0,0,1-5.19,5.19H127.8a5.19,5.19,0,0,1-5.19-5.19v-5.77a5.19,5.19,0,0,1,5.19-5.19h5.78a5.19,5.19,0,0,1,5.19,5.19Z"/><rect class="cls-11" x="179.98" y="145.69" width="17.81" height="62.1" rx="5.71"/><path class="cls-6" d="M180,183.59v18.49a5.71,5.71,0,0,0,5.7,5.71h6.4a5.71,5.71,0,0,0,5.71-5.71V183.54A38.4,38.4,0,0,1,180,183.59Z"/><path class="cls-9" d="M192.94,170.28h-8.11a7.28,7.28,0,0,0-7.28,7.28v8.09a7.28,7.28,0,0,0,7.28,7.28h8.11a7.28,7.28,0,0,0,7.28-7.28v-8.09A7.28,7.28,0,0,0,192.94,170.28Zm4,14.21a5.19,5.19,0,0,1-5.19,5.19H186a5.19,5.19,0,0,1-5.19-5.19v-5.77a5.19,5.19,0,0,1,5.19-5.19h5.78a5.19,5.19,0,0,1,5.19,5.19Z"/><path class="cls-10" d="M192.19,172.37h-6.62a5.92,5.92,0,0,0-5.93,5.93v6.61a5.93,5.93,0,0,0,5.93,5.94h6.62a5.94,5.94,0,0,0,5.94-5.94V178.3A5.93,5.93,0,0,0,192.19,172.37ZM197,184.49a5.19,5.19,0,0,1-5.19,5.19H186a5.19,5.19,0,0,1-5.19-5.19v-5.77a5.19,5.19,0,0,1,5.19-5.19h5.78a5.19,5.19,0,0,1,5.19,5.19Z"/><rect class="cls-7" x="189.18" y="256.95" width="17.81" height="62.1" rx="5.71"/><path class="cls-8" d="M189.18,294.85v18.49a5.71,5.71,0,0,0,5.71,5.71h6.39a5.71,5.71,0,0,0,5.71-5.71V294.8A38.27,38.27,0,0,1,189.18,294.85Z"/><path class="cls-9" d="M202.14,281.54H194a7.28,7.28,0,0,0-7.28,7.28v8.1A7.28,7.28,0,0,0,194,304.2h8.11a7.28,7.28,0,0,0,7.28-7.28v-8.1A7.28,7.28,0,0,0,202.14,281.54Zm4,14.21A5.2,5.2,0,0,1,201,301h-5.79a5.2,5.2,0,0,1-5.19-5.2V290a5.19,5.19,0,0,1,5.19-5.19H201a5.19,5.19,0,0,1,5.19,5.19Z"/><path class="cls-10" d="M201.39,283.63h-6.61a5.94,5.94,0,0,0-5.94,5.94v6.6a5.94,5.94,0,0,0,5.94,5.94h6.61a5.94,5.94,0,0,0,5.94-5.94v-6.6A5.94,5.94,0,0,0,201.39,283.63Zm4.78,12.12A5.2,5.2,0,0,1,201,301h-5.79a5.2,5.2,0,0,1-5.19-5.2V290a5.19,5.19,0,0,1,5.19-5.19H201a5.19,5.19,0,0,1,5.19,5.19Z"/><rect class="cls-7" x="86.16" y="90.85" width="146.55" height="61.94" rx="21.66"/><path class="cls-8" d="M211.05,136.6H107.82a21.66,21.66,0,0,1-21.66-21.66v16.19a21.66,21.66,0,0,0,21.66,21.66H211.05a21.65,21.65,0,0,0,21.65-21.66V114.94A21.65,21.65,0,0,1,211.05,136.6Z"/></g></g></svg>